999
DXF generated by the Iris Calculator.
0
SECTION
2
ENTITIES
0
CIRCLE
8
Pivot-point PCD
10
0
20
0
40
81.75
0
CIRCLE
8
Actuator Ring
6
40
10
0
20
0
40
108.5
0
CIRCLE
8
Actuator Ring
6
40
10
0
20
0
40
55
0
CIRCLE
8
Actuator Ring
6
40
10
81.75
20
0
40
1.875
0
CIRCLE
8
Actuator Ring
6
40
10
40.875
20
70.797576759378
40
1.875
0
CIRCLE
8
Actuator Ring
6
40
10
-40.875
20
70.797576759378
40
1.875
0
CIRCLE
8
Actuator Ring
6
40
10
-81.75
20
1.001148758303E-14
40
1.875
0
CIRCLE
8
Actuator Ring
6
40
10
-40.875
20
-70.797576759378
40
1.875
0
CIRCLE
8
Actuator Ring
6
40
10
40.875
20
-70.797576759378
40
1.875
0
CIRCLE
8
Actuator Ring
6
40
10
81.75
20
-2.0022975166059E-14
40
1.875
0
ENDSEC
0
EOF
