999
DXF generated by the Iris Calculator.
0
SECTION
2
ENTITIES
0
CIRCLE
8
Housing
6
40
10
0
20
0
40
114.5
0
CIRCLE
8
Housing
6
40
10
0
20
0
40
109.5
0
CIRCLE
8
Housing
6
40
10
0
20
0
40
55
0
LINE
8
Slot Center Line
10
-53.125920445899
20
-14.235047480639
11
-101.18073030378
21
-27.111294974489
0
LINE
8
Slot Center Line
10
-14.235047480639
20
-53.125920445899
11
-27.111294974489
21
-101.18073030378
0
LINE
8
Slot Center Line
10
38.89087296526
20
-38.89087296526
11
74.069435329291
21
-74.069435329291
0
LINE
8
Slot Center Line
10
53.125920445899
20
14.235047480639
11
101.18073030378
21
27.111294974489
0
LINE
8
Slot Center Line
10
14.235047480639
20
53.125920445899
11
27.111294974489
21
101.18073030378
0
LINE
8
Slot Center Line
10
-38.89087296526
20
38.89087296526
11
-74.069435329291
21
74.069435329291
0
LINE
8
Slot Center Line
10
-53.125920445899
20
-14.235047480639
11
-101.18073030378
21
-27.111294974489
0
LINE
8
Slot Profile
10
-52.573146161079
20
-16.157484418245
11
-100.64464803461
21
-29.038204524208
0
LINE
8
Slot Profile
10
-12.293781113088
20
-53.608422341489
11
-25.174501219052
21
-101.67992421502
0
LINE
8
Slot Profile
10
40.279365047991
20
-37.450937923244
11
75.470146815557
21
-72.641719690811
0
LINE
8
Slot Profile
10
52.573146161079
20
16.157484418245
11
100.64464803461
21
29.038204524208
0
LINE
8
Slot Profile
10
12.293781113088
20
53.608422341489
11
25.174501219052
21
101.67992421502
0
LINE
8
Slot Profile
10
-40.279365047991
20
37.450937923244
11
-75.470146815557
21
72.641719690811
0
LINE
8
Slot Profile
10
-52.573146161079
20
-16.157484418245
11
-100.64464803461
21
-29.038204524208
0
LINE
8
Slot Profile
10
-53.608422341489
20
-12.293781113088
11
-101.67992421502
21
-25.174501219052
0
LINE
8
Slot Profile
10
-16.157484418245
20
-52.573146161079
11
-29.038204524208
21
-100.64464803461
0
LINE
8
Slot Profile
10
37.450937923244
20
-40.279365047991
11
72.641719690811
21
-75.470146815557
0
LINE
8
Slot Profile
10
53.608422341489
20
12.293781113088
11
101.67992421502
21
25.174501219052
0
LINE
8
Slot Profile
10
16.157484418245
20
52.573146161079
11
29.038204524208
21
100.64464803461
0
LINE
8
Slot Profile
10
-37.450937923244
20
40.279365047991
11
-72.641719690811
21
75.470146815557
0
LINE
8
Slot Profile
10
-53.608422341489
20
-12.293781113088
11
-101.67992421502
21
-25.174501219052
0
ARC
8
Slot Profile
10
-101.18073030378
20
-27.111294974489
40
2
50
105
51
285
0
ARC
8
Slot Profile
10
-27.111294974489
20
-101.18073030378
40
2
50
165
51
345
0
ARC
8
Slot Profile
10
74.069435329291
20
-74.069435329291
40
2
50
225
51
405
0
ARC
8
Slot Profile
10
101.18073030378
20
27.111294974489
40
2
50
285
51
465
0
ARC
8
Slot Profile
10
27.111294974489
20
101.18073030378
40
2
50
345
51
525
0
ARC
8
Slot Profile
10
-74.069435329291
20
74.069435329291
40
2
50
405
51
585
0
ARC
8
Slot Profile
10
-101.18073030378
20
-27.111294974489
40
2
50
465
51
645
0
ENDSEC
0
EOF
