999
DXF generated by the Iris Calculator.
0
SECTION
2
ENTITIES
0
CIRCLE
8
Pivot-point PCD
10
0
20
0
40
70.637145788611
0
CIRCLE
8
Actuator Ring
6
40
10
0
20
0
40
91.274291577222
0
CIRCLE
8
Actuator Ring
6
40
10
0
20
0
40
50
0
CIRCLE
8
Actuator Ring
6
40
10
70.637145788611
20
0
40
1.625
0
CIRCLE
8
Actuator Ring
6
40
10
44.041540031607
20
55.22634440922
40
1.625
0
CIRCLE
8
Actuator Ring
6
40
10
-15.71824365289
20
68.866125066174
40
1.625
0
CIRCLE
8
Actuator Ring
6
40
10
-63.641869273023
20
30.648308935355
40
1.625
0
CIRCLE
8
Actuator Ring
6
40
10
-63.641869273023
20
-30.648308935355
40
1.625
0
CIRCLE
8
Actuator Ring
6
40
10
-15.71824365289
20
-68.866125066174
40
1.625
0
CIRCLE
8
Actuator Ring
6
40
10
44.041540031607
20
-55.22634440922
40
1.625
0
CIRCLE
8
Actuator Ring
6
40
10
70.637145788611
20
-1.7301110898185E-14
40
1.625
0
ENDSEC
0
EOF
