999
"DXF R12 Output" (www.mydxf.blogspot.com)
 0 
SECTION
 2 
HEADER
 9 
$ACADVER
 1 
AC1009
 9 
$EXTMIN
 10 
 0 
 20 
 0 
 9 
$EXTMAX
 10 
 8.5 
 20 
 11 
 0 
ENDSEC
 0 
SECTION
 2 
ENTITIES
0
POLYLINE
8
Housing
62
7
70
0
10
0.000000
20
0.000000
66
1
0
VERTEX
8
Housing
10
232.921469
20
126.197626
70
0
0
VERTEX
8
Housing
10
232.801402
20
130.946043
70
0
0
VERTEX
8
Housing
10
232.445068
20
135.632124
70
0
0
VERTEX
8
Housing
10
231.858263
20
140.250073
70
0
0
VERTEX
8
Housing
10
231.046786
20
144.794090
70
0
0
VERTEX
8
Housing
10
230.016434
20
149.258380
70
0
0
VERTEX
8
Housing
10
228.773005
20
153.637142
70
0
0
VERTEX
8
Housing
10
227.322296
20
157.924581
70
0
0
VERTEX
8
Housing
10
225.670107
20
162.114898
70
0
0
VERTEX
8
Housing
10
223.822234
20
166.202296
70
0
0
VERTEX
8
Housing
10
221.784474
20
170.180976
70
0
0
VERTEX
8
Housing
10
219.562627
20
174.045142
70
0
0
VERTEX
8
Housing
10
217.162489
20
177.788994
70
0
0
VERTEX
8
Housing
10
214.589859
20
181.406736
70
0
0
VERTEX
8
Housing
10
211.850533
20
184.892569
70
0
0
VERTEX
8
Housing
10
208.950311
20
188.240697
70
0
0
VERTEX
8
Housing
10
205.894989
20
191.445320
70
0
0
VERTEX
8
Housing
10
202.690365
20
194.500642
70
0
0
VERTEX
8
Housing
10
199.342238
20
197.400864
70
0
0
VERTEX
8
Housing
10
195.856404
20
200.140190
70
0
0
VERTEX
8
Housing
10
192.238663
20
202.712820
70
0
0
VERTEX
8
Housing
10
188.494810
20
205.112958
70
0
0
VERTEX
8
Housing
10
184.630645
20
207.334806
70
0
0
VERTEX
8
Housing
10
180.651965
20
209.372565
70
0
0
VERTEX
8
Housing
10
176.564567
20
211.220438
70
0
0
VERTEX
8
Housing
10
172.374250
20
212.872628
70
0
0
VERTEX
8
Housing
10
168.086811
20
214.323336
70
0
0
VERTEX
8
Housing
10
163.708048
20
215.566765
70
0
0
VERTEX
8
Housing
10
159.243759
20
216.597117
70
0
0
VERTEX
8
Housing
10
154.699741
20
217.408594
70
0
0
VERTEX
8
Housing
10
150.081792
20
217.995399
70
0
0
VERTEX
8
Housing
10
145.395711
20
218.351734
70
0
0
VERTEX
8
Housing
10
140.647294
20
218.471800
70
0
0
VERTEX
8
Housing
10
135.898877
20
218.351734
70
0
0
VERTEX
8
Housing
10
131.212795
20
217.995399
70
0
0
VERTEX
8
Housing
10
126.594847
20
217.408595
70
0
0
VERTEX
8
Housing
10
122.050829
20
216.597117
70
0
0
VERTEX
8
Housing
10
117.586540
20
215.566765
70
0
0
VERTEX
8
Housing
10
113.207777
20
214.323336
70
0
0
VERTEX
8
Housing
10
108.920338
20
212.872628
70
0
0
VERTEX
8
Housing
10
104.730020
20
211.220439
70
0
0
VERTEX
8
Housing
10
100.642623
20
209.372565
70
0
0
VERTEX
8
Housing
10
96.663942
20
207.334806
70
0
0
VERTEX
8
Housing
10
92.799777
20
205.112959
70
0
0
VERTEX
8
Housing
10
89.055925
20
202.712821
70
0
0
VERTEX
8
Housing
10
85.438183
20
200.140191
70
0
0
VERTEX
8
Housing
10
81.952349
20
197.400865
70
0
0
VERTEX
8
Housing
10
78.604222
20
194.500643
70
0
0
VERTEX
8
Housing
10
75.399598
20
191.445321
70
0
0
VERTEX
8
Housing
10
72.344276
20
188.240697
70
0
0
VERTEX
8
Housing
10
69.444054
20
184.892570
70
0
0
VERTEX
8
Housing
10
66.704728
20
181.406737
70
0
0
VERTEX
8
Housing
10
64.132098
20
177.788995
70
0
0
VERTEX
8
Housing
10
61.731960
20
174.045142
70
0
0
VERTEX
8
Housing
10
59.510113
20
170.180977
70
0
0
VERTEX
8
Housing
10
57.472353
20
166.202297
70
0
0
VERTEX
8
Housing
10
55.624480
20
162.114899
70
0
0
VERTEX
8
Housing
10
53.972290
20
157.924582
70
0
0
VERTEX
8
Housing
10
52.521582
20
153.637143
70
0
0
VERTEX
8
Housing
10
51.278153
20
149.258380
70
0
0
VERTEX
8
Housing
10
50.247801
20
144.794091
70
0
0
VERTEX
8
Housing
10
49.436323
20
140.250073
70
0
0
VERTEX
8
Housing
10
48.849519
20
135.632124
70
0
0
VERTEX
8
Housing
10
48.493184
20
130.946043
70
0
0
VERTEX
8
Housing
10
48.373117
20
126.197626
70
0
0
VERTEX
8
Housing
10
48.577602
20
120.048576
70
0
0
VERTEX
8
Housing
10
49.184585
20
113.975026
70
0
0
VERTEX
8
Housing
10
50.184363
20
107.993786
70
0
0
VERTEX
8
Housing
10
51.567232
20
102.121665
70
0
0
VERTEX
8
Housing
10
53.323485
20
96.375470
70
0
0
VERTEX
8
Housing
10
55.443420
20
90.772012
70
0
0
VERTEX
8
Housing
10
57.917330
20
85.328098
70
0
0
VERTEX
8
Housing
10
60.735513
20
80.060538
70
0
0
VERTEX
8
Housing
10
63.888262
20
74.986140
70
0
0
VERTEX
8
Housing
10
67.365874
20
70.121714
70
0
0
VERTEX
8
Housing
10
71.158645
20
65.484068
70
0
0
VERTEX
8
Housing
10
75.256868
20
61.090010
70
0
0
VERTEX
8
Housing
10
79.650841
20
56.956351
70
0
0
VERTEX
8
Housing
10
84.330857
20
53.099897
70
0
0
VERTEX
8
Housing
10
89.287214
20
49.537459
70
0
0
VERTEX
8
Housing
10
94.510205
20
46.285846
70
0
0
VERTEX
8
Housing
10
99.937681
20
43.388409
70
0
0
VERTEX
8
Housing
10
105.501021
20
40.877298
70
0
0
VERTEX
8
Housing
10
111.180816
20
38.752511
70
0
0
VERTEX
8
Housing
10
116.957657
20
37.014049
70
0
0
VERTEX
8
Housing
10
122.812134
20
35.661912
70
0
0
VERTEX
8
Housing
10
128.724838
20
34.696100
70
0
0
VERTEX
8
Housing
10
134.676361
20
34.116613
70
0
0
VERTEX
8
Housing
10
140.647293
20
33.923450
70
0
0
VERTEX
8
Housing
10
146.618225
20
34.116613
70
0
0
VERTEX
8
Housing
10
152.569748
20
34.696100
70
0
0
VERTEX
8
Housing
10
158.482453
20
35.661912
70
0
0
VERTEX
8
Housing
10
164.336930
20
37.014049
70
0
0
VERTEX
8
Housing
10
170.113770
20
38.752511
70
0
0
VERTEX
8
Housing
10
175.793565
20
40.877298
70
0
0
VERTEX
8
Housing
10
181.356905
20
43.388409
70
0
0
VERTEX
8
Housing
10
186.784381
20
46.285846
70
0
0
VERTEX
8
Housing
10
192.007373
20
49.537459
70
0
0
VERTEX
8
Housing
10
196.963729
20
53.099897
70
0
0
VERTEX
8
Housing
10
201.643746
20
56.956351
70
0
0
VERTEX
8
Housing
10
206.037718
20
61.090010
70
0
0
VERTEX
8
Housing
10
210.135942
20
65.484068
70
0
0
VERTEX
8
Housing
10
213.928712
20
70.121714
70
0
0
VERTEX
8
Housing
10
217.406324
20
74.986140
70
0
0
VERTEX
8
Housing
10
220.559073
20
80.060538
70
0
0
VERTEX
8
Housing
10
223.377256
20
85.328098
70
0
0
VERTEX
8
Housing
10
225.851167
20
90.772012
70
0
0
VERTEX
8
Housing
10
227.971101
20
96.375470
70
0
0
VERTEX
8
Housing
10
229.727355
20
102.121665
70
0
0
VERTEX
8
Housing
10
231.110223
20
107.993786
70
0
0
VERTEX
8
Housing
10
232.110001
20
113.975026
70
0
0
VERTEX
8
Housing
10
232.716985
20
120.048576
70
0
0
VERTEX
8
Housing
10
232.921469
20
126.197626
70
0
0
VERTEX
8
Housing
10
232.921469
20
126.197626
70
0
0
SEQEND
8
Housing
0
POLYLINE
8
Housing
62
7
70
0
10
0.000000
20
0.000000
66
1
0
VERTEX
8
Housing
10
140.647052
20
176.329667
70
0
0
VERTEX
8
Housing
10
135.521587
20
176.070823
70
0
0
VERTEX
8
Housing
10
130.544130
20
175.311093
70
0
0
VERTEX
8
Housing
10
125.739886
20
174.075684
70
0
0
VERTEX
8
Housing
10
121.134061
20
172.389803
70
0
0
VERTEX
8
Housing
10
116.751858
20
170.278655
70
0
0
VERTEX
8
Housing
10
112.618483
20
167.767447
70
0
0
VERTEX
8
Housing
10
108.759141
20
164.881384
70
0
0
VERTEX
8
Housing
10
105.199035
20
161.645673
70
0
0
VERTEX
8
Housing
10
101.963371
20
158.085521
70
0
0
VERTEX
8
Housing
10
99.077354
20
154.226132
70
0
0
VERTEX
8
Housing
10
96.566188
20
150.092713
70
0
0
VERTEX
8
Housing
10
94.455078
20
145.710471
70
0
0
VERTEX
8
Housing
10
92.769228
20
141.104612
70
0
0
VERTEX
8
Housing
10
91.533844
20
136.300341
70
0
0
VERTEX
8
Housing
10
90.774131
20
131.322865
70
0
0
VERTEX
8
Housing
10
90.515292
20
126.197391
70
0
0
VERTEX
8
Housing
10
90.774131
20
121.071922
70
0
0
VERTEX
8
Housing
10
91.533844
20
116.094463
70
0
0
VERTEX
8
Housing
10
92.769228
20
111.290218
70
0
0
VERTEX
8
Housing
10
94.455078
20
106.684391
70
0
0
VERTEX
8
Housing
10
96.566188
20
102.302188
70
0
0
VERTEX
8
Housing
10
99.077354
20
98.168813
70
0
0
VERTEX
8
Housing
10
101.963371
20
94.309471
70
0
0
VERTEX
8
Housing
10
105.199035
20
90.749366
70
0
0
VERTEX
8
Housing
10
108.759141
20
87.513704
70
0
0
VERTEX
8
Housing
10
112.618483
20
84.627687
70
0
0
VERTEX
8
Housing
10
116.751858
20
82.116523
70
0
0
VERTEX
8
Housing
10
121.134061
20
80.005414
70
0
0
VERTEX
8
Housing
10
125.739886
20
78.319565
70
0
0
VERTEX
8
Housing
10
130.544130
20
77.084182
70
0
0
VERTEX
8
Housing
10
135.521587
20
76.324469
70
0
0
VERTEX
8
Housing
10
140.647052
20
76.065630
70
0
0
VERTEX
8
Housing
10
145.772524
20
76.324469
70
0
0
VERTEX
8
Housing
10
150.749997
20
77.084182
70
0
0
VERTEX
8
Housing
10
155.554266
20
78.319565
70
0
0
VERTEX
8
Housing
10
160.160124
20
80.005414
70
0
0
VERTEX
8
Housing
10
164.542366
20
82.116523
70
0
0
VERTEX
8
Housing
10
168.675784
20
84.627687
70
0
0
VERTEX
8
Housing
10
172.535174
20
87.513704
70
0
0
VERTEX
8
Housing
10
176.095327
20
90.749366
70
0
0
VERTEX
8
Housing
10
179.331039
20
94.309471
70
0
0
VERTEX
8
Housing
10
182.217103
20
98.168813
70
0
0
VERTEX
8
Housing
10
184.728313
20
102.302188
70
0
0
VERTEX
8
Housing
10
186.839462
20
106.684391
70
0
0
VERTEX
8
Housing
10
188.525344
20
111.290218
70
0
0
VERTEX
8
Housing
10
189.760754
20
116.094463
70
0
0
VERTEX
8
Housing
10
190.520484
20
121.071922
70
0
0
VERTEX
8
Housing
10
190.779329
20
126.197391
70
0
0
VERTEX
8
Housing
10
190.520484
20
131.322865
70
0
0
VERTEX
8
Housing
10
189.760754
20
136.300341
70
0
0
VERTEX
8
Housing
10
188.525344
20
141.104612
70
0
0
VERTEX
8
Housing
10
186.839462
20
145.710471
70
0
0
VERTEX
8
Housing
10
184.728313
20
150.092713
70
0
0
VERTEX
8
Housing
10
182.217103
20
154.226132
70
0
0
VERTEX
8
Housing
10
179.331039
20
158.085521
70
0
0
VERTEX
8
Housing
10
176.095327
20
161.645673
70
0
0
VERTEX
8
Housing
10
172.535174
20
164.881384
70
0
0
VERTEX
8
Housing
10
168.675784
20
167.767447
70
0
0
VERTEX
8
Housing
10
164.542366
20
170.278655
70
0
0
VERTEX
8
Housing
10
160.160124
20
172.389803
70
0
0
VERTEX
8
Housing
10
155.554266
20
174.075684
70
0
0
VERTEX
8
Housing
10
150.749997
20
175.311093
70
0
0
VERTEX
8
Housing
10
145.772524
20
176.070823
70
0
0
VERTEX
8
Housing
10
140.647052
20
176.329667
70
0
0
VERTEX
8
Housing
10
140.647052
20
176.329667
70
0
0
SEQEND
8
Housing
0
POLYLINE
8
Housing
62
7
70
0
10
0.000000
20
0.000000
66
1
0
VERTEX
8
Housing
10
140.647052
20
176.065084
70
0
0
VERTEX
8
Housing
10
145.745988
20
175.807640
70
0
0
VERTEX
8
Housing
10
150.697574
20
175.052014
70
0
0
VERTEX
8
Housing
10
155.476751
20
173.823265
70
0
0
VERTEX
8
Housing
10
160.058459
20
172.146453
70
0
0
VERTEX
8
Housing
10
164.417639
20
170.046637
70
0
0
VERTEX
8
Housing
10
168.529231
20
167.548877
70
0
0
VERTEX
8
Housing
10
172.368176
20
164.678231
70
0
0
VERTEX
8
Housing
10
175.909414
20
161.459760
70
0
0
VERTEX
8
Housing
10
179.127886
20
157.918523
70
0
0
VERTEX
8
Housing
10
181.998533
20
154.079578
70
0
0
VERTEX
8
Housing
10
184.496295
20
149.967986
70
0
0
VERTEX
8
Housing
10
186.596112
20
145.608806
70
0
0
VERTEX
8
Housing
10
188.272925
20
141.027097
70
0
0
VERTEX
8
Housing
10
189.501675
20
136.247918
70
0
0
VERTEX
8
Housing
10
190.257302
20
131.296330
70
0
0
VERTEX
8
Housing
10
190.514746
20
126.197391
70
0
0
VERTEX
8
Housing
10
190.257302
20
121.098457
70
0
0
VERTEX
8
Housing
10
189.501675
20
116.146886
70
0
0
VERTEX
8
Housing
10
188.272925
20
111.367733
70
0
0
VERTEX
8
Housing
10
186.596112
20
106.786057
70
0
0
VERTEX
8
Housing
10
184.496295
20
102.426916
70
0
0
VERTEX
8
Housing
10
181.998533
20
98.315367
70
0
0
VERTEX
8
Housing
10
179.127886
20
94.476469
70
0
0
VERTEX
8
Housing
10
175.909414
20
90.935280
70
0
0
VERTEX
8
Housing
10
172.368176
20
87.716856
70
0
0
VERTEX
8
Housing
10
168.529231
20
84.846257
70
0
0
VERTEX
8
Housing
10
164.417639
20
82.348541
70
0
0
VERTEX
8
Housing
10
160.058459
20
80.248764
70
0
0
VERTEX
8
Housing
10
155.476751
20
78.571984
70
0
0
VERTEX
8
Housing
10
150.697574
20
77.343261
70
0
0
VERTEX
8
Housing
10
145.745988
20
76.587651
70
0
0
VERTEX
8
Housing
10
140.647052
20
76.330213
70
0
0
VERTEX
8
Housing
10
135.548122
20
76.587651
70
0
0
VERTEX
8
Housing
10
130.596553
20
77.343261
70
0
0
VERTEX
8
Housing
10
125.817401
20
78.571984
70
0
0
VERTEX
8
Housing
10
121.235726
20
80.248764
70
0
0
VERTEX
8
Housing
10
116.876586
20
82.348541
70
0
0
VERTEX
8
Housing
10
112.765037
20
84.846257
70
0
0
VERTEX
8
Housing
10
108.926139
20
87.716856
70
0
0
VERTEX
8
Housing
10
105.384948
20
90.935280
70
0
0
VERTEX
8
Housing
10
102.166524
20
94.476469
70
0
0
VERTEX
8
Housing
10
99.295924
20
98.315367
70
0
0
VERTEX
8
Housing
10
96.798206
20
102.426916
70
0
0
VERTEX
8
Housing
10
94.698428
20
106.786057
70
0
0
VERTEX
8
Housing
10
93.021648
20
111.367733
70
0
0
VERTEX
8
Housing
10
91.792924
20
116.146886
70
0
0
VERTEX
8
Housing
10
91.037313
20
121.098457
70
0
0
VERTEX
8
Housing
10
90.779875
20
126.197391
70
0
0
VERTEX
8
Housing
10
91.037313
20
131.296330
70
0
0
VERTEX
8
Housing
10
91.792924
20
136.247918
70
0
0
VERTEX
8
Housing
10
93.021648
20
141.027097
70
0
0
VERTEX
8
Housing
10
94.698428
20
145.608806
70
0
0
VERTEX
8
Housing
10
96.798206
20
149.967986
70
0
0
VERTEX
8
Housing
10
99.295924
20
154.079578
70
0
0
VERTEX
8
Housing
10
102.166524
20
157.918523
70
0
0
VERTEX
8
Housing
10
105.384948
20
161.459760
70
0
0
VERTEX
8
Housing
10
108.926139
20
164.678231
70
0
0
VERTEX
8
Housing
10
112.765037
20
167.548877
70
0
0
VERTEX
8
Housing
10
116.876586
20
170.046637
70
0
0
VERTEX
8
Housing
10
121.235726
20
172.146453
70
0
0
VERTEX
8
Housing
10
125.817401
20
173.823265
70
0
0
VERTEX
8
Housing
10
130.596553
20
175.052014
70
0
0
VERTEX
8
Housing
10
135.548122
20
175.807640
70
0
0
VERTEX
8
Housing
10
140.647052
20
176.065084
70
0
0
VERTEX
8
Housing
10
140.647052
20
176.065084
70
0
0
SEQEND
8
Housing
0
POLYLINE
8
Slot Profile
62
7
70
0
10
0.000000
20
0.000000
66
1
0
VERTEX
8
Slot Profile
10
90.796152
20
122.342572
70
0
0
VERTEX
8
Slot Profile
10
52.997824
20
118.082786
70
0
0
SEQEND
8
Slot Profile
0
POLYLINE
8
Slot Profile
62
7
70
0
10
0.000000
20
0.000000
66
1
0
VERTEX
8
Slot Profile
10
52.980653
20
118.081040
70
0
0
VERTEX
8
Slot Profile
10
52.319219
20
117.868067
70
0
0
VERTEX
8
Slot Profile
10
51.808509
20
117.433099
70
0
0
VERTEX
8
Slot Profile
10
51.498152
20
116.838373
70
0
0
VERTEX
8
Slot Profile
10
51.437774
20
116.146125
70
0
0
VERTEX
8
Slot Profile
10
51.650677
20
115.484668
70
0
0
VERTEX
8
Slot Profile
10
52.085592
20
114.973914
70
0
0
VERTEX
8
Slot Profile
10
52.680285
20
114.663494
70
0
0
VERTEX
8
Slot Profile
10
53.372527
20
114.603043
70
0
0
SEQEND
8
Slot Profile
0
POLYLINE
8
Slot Profile
62
7
70
0
10
0.000000
20
0.000000
66
1
0
VERTEX
8
Slot Profile
10
112.468444
20
84.889888
70
0
0
VERTEX
8
Slot Profile
10
92.230946
20
52.682075
70
0
0
VERTEX
8
Slot Profile
10
92.455222
20
52.541516
70
0
0
VERTEX
8
Slot Profile
10
112.692205
20
84.748810
70
0
0
VERTEX
8
Slot Profile
10
112.468444
20
84.889888
70
0
0
VERTEX
8
Slot Profile
10
112.468444
20
84.889888
70
0
0
SEQEND
8
Slot Profile
0
POLYLINE
8
Slot Profile
62
7
70
0
10
0.000000
20
0.000000
66
1
0
VERTEX
8
Slot Profile
10
115.431567
20
83.026954
70
0
0
VERTEX
8
Slot Profile
10
95.194587
20
50.819657
70
0
0
VERTEX
8
Slot Profile
10
95.418345
20
50.678581
70
0
0
VERTEX
8
Slot Profile
10
115.655844
20
82.886394
70
0
0
VERTEX
8
Slot Profile
10
115.431567
20
83.026954
70
0
0
VERTEX
8
Slot Profile
10
115.431567
20
83.026954
70
0
0
SEQEND
8
Slot Profile
0
POLYLINE
8
Slot Profile
62
7
70
0
10
0.000000
20
0.000000
66
1
0
VERTEX
8
Slot Profile
10
92.221646
20
52.666571
70
0
0
VERTEX
8
Slot Profile
10
91.958219
20
51.968172
70
0
0
VERTEX
8
Slot Profile
10
91.982106
20
51.247172
70
0
0
VERTEX
8
Slot Profile
10
92.274074
20
50.587462
70
0
0
VERTEX
8
Slot Profile
10
92.814891
20
50.072935
70
0
0
VERTEX
8
Slot Profile
10
93.513191
20
49.808973
70
0
0
VERTEX
8
Slot Profile
10
94.234416
20
49.832272
70
0
0
VERTEX
8
Slot Profile
10
94.894546
20
50.123697
70
0
0
VERTEX
8
Slot Profile
10
95.409561
20
50.664111
70
0
0
VERTEX
8
Slot Profile
10
95.185285
20
50.804671
70
0
0
VERTEX
8
Slot Profile
10
94.742374
20
50.338980
70
0
0
VERTEX
8
Slot Profile
10
94.175726
20
50.088306
70
0
0
VERTEX
8
Slot Profile
10
93.556398
20
50.068821
70
0
0
VERTEX
8
Slot Profile
10
92.955448
20
50.296693
70
0
0
VERTEX
8
Slot Profile
10
92.489446
20
50.739242
70
0
0
VERTEX
8
Slot Profile
10
92.238384
20
51.305658
70
0
0
VERTEX
8
Slot Profile
10
92.218473
20
51.924921
70
0
0
VERTEX
8
Slot Profile
10
92.445919
20
52.526011
70
0
0
VERTEX
8
Slot Profile
10
92.221646
20
52.666571
70
0
0
VERTEX
8
Slot Profile
10
92.221646
20
52.666571
70
0
0
SEQEND
8
Slot Profile
0
POLYLINE
8
Slot Profile
62
7
70
0
10
0.000000
20
0.000000
66
1
0
VERTEX
8
Slot Profile
10
155.499316
20
78.453544
70
0
0
VERTEX
8
Slot Profile
10
168.068522
20
42.535280
70
0
0
VERTEX
8
Slot Profile
10
168.423690
20
41.937175
70
0
0
VERTEX
8
Slot Profile
10
168.962681
20
41.534900
70
0
0
VERTEX
8
Slot Profile
10
169.612948
20
41.363556
70
0
0
VERTEX
8
Slot Profile
10
170.301944
20
41.458245
70
0
0
VERTEX
8
Slot Profile
10
170.899298
20
41.811885
70
0
0
VERTEX
8
Slot Profile
10
171.300101
20
42.347057
70
0
0
VERTEX
8
Slot Profile
10
171.469996
20
42.993361
70
0
0
VERTEX
8
Slot Profile
10
171.374621
20
43.680398
70
0
0
VERTEX
8
Slot Profile
10
158.802899
20
79.609772
70
0
0
SEQEND
8
Slot Profile
0
POLYLINE
8
Slot Profile
62
7
70
0
10
0.000000
20
0.000000
66
1
0
VERTEX
8
Slot Profile
10
188.434256
20
111.471177
70
0
0
VERTEX
8
Slot Profile
10
188.346922
20
111.221580
70
0
0
VERTEX
8
Slot Profile
10
224.249594
20
98.656470
70
0
0
VERTEX
8
Slot Profile
10
224.336928
20
98.906067
70
0
0
VERTEX
8
Slot Profile
10
188.434256
20
111.471177
70
0
0
VERTEX
8
Slot Profile
10
188.434256
20
111.471177
70
0
0
SEQEND
8
Slot Profile
0
POLYLINE
8
Slot Profile
62
7
70
0
10
0.000000
20
0.000000
66
1
0
VERTEX
8
Slot Profile
10
187.278256
20
108.166472
70
0
0
VERTEX
8
Slot Profile
10
187.190922
20
107.916875
70
0
0
VERTEX
8
Slot Profile
10
223.093594
20
95.354352
70
0
0
VERTEX
8
Slot Profile
10
223.180928
20
95.604465
70
0
0
VERTEX
8
Slot Profile
10
187.278256
20
108.166472
70
0
0
VERTEX
8
Slot Profile
10
187.278256
20
108.166472
70
0
0
SEQEND
8
Slot Profile
0
POLYLINE
8
Slot Profile
62
7
70
0
10
0.000000
20
0.000000
66
1
0
VERTEX
8
Slot Profile
10
224.353980
20
98.901934
70
0
0
VERTEX
8
Slot Profile
10
224.266131
20
98.652337
70
0
0
VERTEX
8
Slot Profile
10
224.818141
20
98.323854
70
0
0
VERTEX
8
Slot Profile
10
225.188165
20
97.827108
70
0
0
VERTEX
8
Slot Profile
10
225.344702
20
97.227763
70
0
0
VERTEX
8
Slot Profile
10
225.256251
20
96.591484
70
0
0
VERTEX
8
Slot Profile
10
224.928729
20
96.038980
70
0
0
VERTEX
8
Slot Profile
10
224.432741
20
95.668231
70
0
0
VERTEX
8
Slot Profile
10
223.833811
20
95.510802
70
0
0
VERTEX
8
Slot Profile
10
223.197464
20
95.598263
70
0
0
VERTEX
8
Slot Profile
10
223.110131
20
95.348150
70
0
0
VERTEX
8
Slot Profile
10
223.849401
20
95.247352
70
0
0
VERTEX
8
Slot Profile
10
224.546770
20
95.431337
70
0
0
VERTEX
8
Slot Profile
10
225.124749
20
95.862729
70
0
0
VERTEX
8
Slot Profile
10
225.505848
20
96.504151
70
0
0
VERTEX
8
Slot Profile
10
225.607879
20
97.243289
70
0
0
VERTEX
8
Slot Profile
10
225.425112
20
97.941025
70
0
0
VERTEX
8
Slot Profile
10
224.994747
20
98.519770
70
0
0
VERTEX
8
Slot Profile
10
224.353980
20
98.901934
70
0
0
VERTEX
8
Slot Profile
10
224.353980
20
98.901934
70
0
0
SEQEND
8
Slot Profile
0
POLYLINE
8
Slot Profile
62
7
70
0
10
0.000000
20
0.000000
66
1
0
VERTEX
8
Slot Profile
10
215.148871
20
174.910634
70
0
0
VERTEX
8
Slot Profile
10
214.876535
20
174.886864
70
0
0
VERTEX
8
Slot Profile
10
214.177872
20
174.623316
70
0
0
VERTEX
8
Slot Profile
10
214.318948
20
174.399039
70
0
0
VERTEX
8
Slot Profile
10
214.920185
20
174.626959
70
0
0
VERTEX
8
Slot Profile
10
215.539743
20
174.607279
70
0
0
VERTEX
8
Slot Profile
10
216.106492
20
174.356226
70
0
0
VERTEX
8
Slot Profile
10
216.549300
20
173.890027
70
0
0
VERTEX
8
Slot Profile
10
216.777220
20
173.288791
70
0
0
VERTEX
8
Slot Profile
10
216.757540
20
172.669232
70
0
0
VERTEX
8
Slot Profile
10
216.506487
20
172.102483
70
0
0
VERTEX
8
Slot Profile
10
216.040288
20
171.659674
70
0
0
VERTEX
8
Slot Profile
10
216.180847
20
171.435400
70
0
0
VERTEX
8
Slot Profile
10
216.721824
20
171.950283
70
0
0
VERTEX
8
Slot Profile
10
217.013630
20
172.610501
70
0
0
VERTEX
8
Slot Profile
10
217.037098
20
173.331966
70
0
0
VERTEX
8
Slot Profile
10
216.773058
20
174.030586
70
0
0
VERTEX
8
Slot Profile
10
216.063512
20
174.690379
70
0
0
VERTEX
8
Slot Profile
10
215.148871
20
174.910634
70
0
0
VERTEX
8
Slot Profile
10
215.148871
20
174.910634
70
0
0
SEQEND
8
Slot Profile
0
POLYLINE
8
Slot Profile
62
7
70
0
10
0.000000
20
0.000000
66
1
0
VERTEX
8
Slot Profile
10
214.163402
20
174.614013
70
0
0
VERTEX
8
Slot Profile
10
181.956105
20
154.376515
70
0
0
VERTEX
8
Slot Profile
10
182.096665
20
154.152754
70
0
0
VERTEX
8
Slot Profile
10
214.303962
20
174.389737
70
0
0
VERTEX
8
Slot Profile
10
214.163402
20
174.614013
70
0
0
VERTEX
8
Slot Profile
10
214.163402
20
174.614013
70
0
0
SEQEND
8
Slot Profile
0
POLYLINE
8
Slot Profile
62
7
70
0
10
0.000000
20
0.000000
66
1
0
VERTEX
8
Slot Profile
10
216.025302
20
171.650374
70
0
0
VERTEX
8
Slot Profile
10
183.818005
20
151.413391
70
0
0
VERTEX
8
Slot Profile
10
183.959083
20
151.189115
70
0
0
VERTEX
8
Slot Profile
10
216.166377
20
171.426098
70
0
0
VERTEX
8
Slot Profile
10
216.025302
20
171.650374
70
0
0
VERTEX
8
Slot Profile
10
216.025302
20
171.650374
70
0
0
SEQEND
8
Slot Profile
0
POLYLINE
8
Slot Profile
62
7
70
0
10
0.000000
20
0.000000
66
1
0
VERTEX
8
Slot Profile
10
150.521372
20
215.550480
70
0
0
VERTEX
8
Slot Profile
10
149.839584
20
215.429656
70
0
0
VERTEX
8
Slot Profile
10
149.260521
20
215.081337
70
0
0
VERTEX
8
Slot Profile
10
148.839691
20
214.549787
70
0
0
VERTEX
8
Slot Profile
10
148.632601
20
213.879268
70
0
0
VERTEX
8
Slot Profile
10
148.895118
20
213.849293
70
0
0
VERTEX
8
Slot Profile
10
149.091862
20
214.461527
70
0
0
VERTEX
8
Slot Profile
10
149.493699
20
214.933781
70
0
0
VERTEX
8
Slot Profile
10
150.043504
20
215.220488
70
0
0
VERTEX
8
Slot Profile
10
150.684151
20
215.276078
70
0
0
VERTEX
8
Slot Profile
10
151.296303
20
215.079334
70
0
0
VERTEX
8
Slot Profile
10
151.768379
20
214.677498
70
0
0
VERTEX
8
Slot Profile
10
152.054909
20
214.127692
70
0
0
VERTEX
8
Slot Profile
10
152.110420
20
213.487042
70
0
0
VERTEX
8
Slot Profile
10
152.373453
20
213.457589
70
0
0
VERTEX
8
Slot Profile
10
152.308181
20
214.201553
70
0
0
VERTEX
8
Slot Profile
10
151.973912
20
214.841310
70
0
0
VERTEX
8
Slot Profile
10
151.424451
20
215.309458
70
0
0
VERTEX
8
Slot Profile
10
150.713607
20
215.538595
70
0
0
VERTEX
8
Slot Profile
10
150.521372
20
215.550480
70
0
0
VERTEX
8
Slot Profile
10
150.521372
20
215.550480
70
0
0
SEQEND
8
Slot Profile
0
POLYLINE
8
Slot Profile
62
7
70
0
10
0.000000
20
0.000000
66
1
0
VERTEX
8
Slot Profile
10
148.630535
20
213.861697
70
0
0
VERTEX
8
Slot Profile
10
144.371884
20
176.063534
70
0
0
VERTEX
8
Slot Profile
10
144.634400
20
176.034080
70
0
0
VERTEX
8
Slot Profile
10
148.893567
20
213.832241
70
0
0
VERTEX
8
Slot Profile
10
148.630535
20
213.861697
70
0
0
VERTEX
8
Slot Profile
10
148.630535
20
213.861697
70
0
0
SEQEND
8
Slot Profile
0
POLYLINE
8
Slot Profile
62
7
70
0
10
0.000000
20
0.000000
66
1
0
VERTEX
8
Slot Profile
10
152.108354
20
213.469990
70
0
0
VERTEX
8
Slot Profile
10
147.849703
20
175.671829
70
0
0
VERTEX
8
Slot Profile
10
148.112738
20
175.641857
70
0
0
VERTEX
8
Slot Profile
10
152.371386
20
213.440534
70
0
0
VERTEX
8
Slot Profile
10
152.108354
20
213.469990
70
0
0
VERTEX
8
Slot Profile
10
152.108354
20
213.469990
70
0
0
SEQEND
8
Slot Profile
0
POLYLINE
8
Slot Profile
62
7
70
0
10
0.000000
20
0.000000
66
1
0
VERTEX
8
Slot Profile
10
90.781425
20
122.474110
70
0
0
VERTEX
8
Slot Profile
10
52.983262
20
118.214427
70
0
0
VERTEX
8
Slot Profile
10
53.012718
20
117.951394
70
0
0
VERTEX
8
Slot Profile
10
90.810881
20
122.211077
70
0
0
VERTEX
8
Slot Profile
10
90.781425
20
122.474110
70
0
0
VERTEX
8
Slot Profile
10
90.781425
20
122.474110
70
0
0
SEQEND
8
Slot Profile
0
POLYLINE
8
Slot Profile
62
7
70
0
10
0.000000
20
0.000000
66
1
0
VERTEX
8
Slot Profile
10
91.173132
20
118.994740
70
0
0
VERTEX
8
Slot Profile
10
53.374969
20
114.737639
70
0
0
VERTEX
8
Slot Profile
10
53.404941
20
114.474607
70
0
0
VERTEX
8
Slot Profile
10
91.202586
20
118.731705
70
0
0
VERTEX
8
Slot Profile
10
91.173132
20
118.994740
70
0
0
VERTEX
8
Slot Profile
10
91.173132
20
118.994740
70
0
0
SEQEND
8
Slot Profile
0
POLYLINE
8
Slot Profile
62
7
70
0
10
0.000000
20
0.000000
66
1
0
VERTEX
8
Slot Profile
10
52.965693
20
118.212358
70
0
0
VERTEX
8
Slot Profile
10
52.254967
20
117.983169
70
0
0
VERTEX
8
Slot Profile
10
51.705683
20
117.515008
70
0
0
VERTEX
8
Slot Profile
10
51.371571
20
116.875270
70
0
0
VERTEX
8
Slot Profile
10
51.306364
20
116.131351
70
0
0
VERTEX
8
Slot Profile
10
51.535506
20
115.420555
70
0
0
VERTEX
8
Slot Profile
10
52.003670
20
114.871118
70
0
0
VERTEX
8
Slot Profile
10
52.643433
20
114.536837
70
0
0
VERTEX
8
Slot Profile
10
53.387373
20
114.471506
70
0
0
VERTEX
8
Slot Profile
10
53.357917
20
114.734538
70
0
0
VERTEX
8
Slot Profile
10
52.717368
20
114.790101
70
0
0
VERTEX
8
Slot Profile
10
52.167736
20
115.076641
70
0
0
VERTEX
8
Slot Profile
10
51.766064
20
115.548697
70
0
0
VERTEX
8
Slot Profile
10
51.569396
20
116.160807
70
0
0
VERTEX
8
Slot Profile
10
51.624921
20
116.801337
70
0
0
VERTEX
8
Slot Profile
10
51.911468
20
117.350947
70
0
0
VERTEX
8
Slot Profile
10
52.383546
20
117.752617
70
0
0
VERTEX
8
Slot Profile
10
52.995665
20
117.949325
70
0
0
VERTEX
8
Slot Profile
10
52.965693
20
118.212358
70
0
0
VERTEX
8
Slot Profile
10
52.965693
20
118.212358
70
0
0
SEQEND
8
Slot Profile
0
POLYLINE
8
Slot Profile
62
7
70
0
10
0.000000
20
0.000000
66
1
0
VERTEX
8
Slot Profile
10
78.404933
20
190.321562
70
0
0
VERTEX
8
Slot Profile
10
77.696213
20
190.184005
70
0
0
VERTEX
8
Slot Profile
10
77.073750
20
189.771209
70
0
0
VERTEX
8
Slot Profile
10
76.660891
20
189.148865
70
0
0
VERTEX
8
Slot Profile
10
76.523271
20
188.440284
70
0
0
VERTEX
8
Slot Profile
10
76.660891
20
187.731703
70
0
0
VERTEX
8
Slot Profile
10
77.073750
20
187.109358
70
0
0
VERTEX
8
Slot Profile
10
77.260821
20
187.296426
70
0
0
VERTEX
8
Slot Profile
10
76.904835
20
187.831875
70
0
0
VERTEX
8
Slot Profile
10
76.786173
20
188.440284
70
0
0
VERTEX
8
Slot Profile
10
76.904835
20
189.048693
70
0
0
VERTEX
8
Slot Profile
10
77.260821
20
189.584140
70
0
0
VERTEX
8
Slot Profile
10
77.796268
20
189.940125
70
0
0
VERTEX
8
Slot Profile
10
78.404677
20
190.058786
70
0
0
VERTEX
8
Slot Profile
10
79.013085
20
189.940125
70
0
0
VERTEX
8
Slot Profile
10
79.548533
20
189.584140
70
0
0
VERTEX
8
Slot Profile
10
79.735601
20
189.771209
70
0
0
VERTEX
8
Slot Profile
10
79.113397
20
190.184006
70
0
0
VERTEX
8
Slot Profile
10
78.404933
20
190.321562
70
0
0
VERTEX
8
Slot Profile
10
78.404933
20
190.321562
70
0
0
SEQEND
8
Slot Profile
0
POLYLINE
8
Slot Profile
62
7
70
0
10
0.000000
20
0.000000
66
1
0
VERTEX
8
Slot Profile
10
79.748004
20
189.758805
70
0
0
VERTEX
8
Slot Profile
10
79.560934
20
189.571737
70
0
0
VERTEX
8
Slot Profile
10
106.457452
20
162.675221
70
0
0
VERTEX
8
Slot Profile
10
106.644520
20
162.862289
70
0
0
VERTEX
8
Slot Profile
10
79.748004
20
189.758805
70
0
0
VERTEX
8
Slot Profile
10
79.748004
20
189.758805
70
0
0
SEQEND
8
Slot Profile
0
POLYLINE
8
Slot Profile
62
7
70
0
10
0.000000
20
0.000000
66
1
0
VERTEX
8
Slot Profile
10
77.273222
20
187.284025
70
0
0
VERTEX
8
Slot Profile
10
77.086154
20
187.096957
70
0
0
VERTEX
8
Slot Profile
10
103.982669
20
160.200441
70
0
0
VERTEX
8
Slot Profile
10
104.169738
20
160.387510
70
0
0
VERTEX
8
Slot Profile
10
77.273222
20
187.284025
70
0
0
VERTEX
8
Slot Profile
10
77.273222
20
187.284025
70
0
0
SEQEND
8
Slot Profile
 0 
ENDSEC
 0 
EOF