999
DXF generated by the Iris Calculator.
0
SECTION
2
ENTITIES
0
CIRCLE
8
Pivot-point PCD
10
0
20
0
40
77.826670086713
0
CIRCLE
8
Actuator Ring
6
40
10
0
20
0
40
100.65334017343
0
CIRCLE
8
Actuator Ring
6
40
10
0
20
0
40
55
0
CIRCLE
8
Actuator Ring
6
40
10
77.826670086713
20
0
40
2.125
0
CIRCLE
8
Actuator Ring
6
40
10
48.52413511169
20
60.847340849445
40
2.125
0
CIRCLE
8
Actuator Ring
6
40
10
-17.318063314405
20
75.875392979702
40
2.125
0
CIRCLE
8
Actuator Ring
6
40
10
-70.119406840641
20
33.767726620292
40
2.125
0
CIRCLE
8
Actuator Ring
6
40
10
-70.119406840641
20
-33.767726620292
40
2.125
0
CIRCLE
8
Actuator Ring
6
40
10
-17.318063314405
20
-75.875392979702
40
2.125
0
CIRCLE
8
Actuator Ring
6
40
10
48.52413511169
20
-60.847340849445
40
2.125
0
CIRCLE
8
Actuator Ring
6
40
10
77.826670086713
20
-1.9062036481998E-14
40
2.125
0
ENDSEC
0
EOF
