999
DXF generated by the Iris Calculator.
0
SECTION
2
ENTITIES
0
CIRCLE
8
Housing
6
40
10
0
20
0
40
106.65334017343
0
CIRCLE
8
Housing
6
40
10
0
20
0
40
101.65334017343
0
CIRCLE
8
Housing
6
40
10
0
20
0
40
55
0
LINE
8
Slot Center Line
10
-54.654171544128
20
-6.1580461856819
11
-95.797176204825
21
-10.793749477127
0
LINE
8
Slot Center Line
10
-29.261764208344
20
-46.569830957556
11
-51.289669255482
21
-81.627041011276
0
LINE
8
Slot Center Line
10
18.165348407534
20
-51.91358316696
11
31.840004761824
21
-90.993505775743
0
LINE
8
Slot Center Line
10
51.91358316696
20
-18.165348407534
11
90.993505775743
21
-31.840004761824
0
LINE
8
Slot Center Line
10
46.569830957556
20
29.261764208344
11
81.627041011276
21
51.289669255482
0
LINE
8
Slot Center Line
10
6.1580461856819
20
54.654171544128
11
10.793749477127
21
95.797176204825
0
LINE
8
Slot Center Line
10
-38.89087296526
20
38.89087296526
11
-68.167455565663
21
68.167455565663
0
LINE
8
Slot Center Line
10
-54.654171544128
20
-6.1580461856819
11
-95.797176204825
21
-10.793749477126
0
LINE
8
Slot Profile
10
-54.356498976542
20
-8.3887435896698
11
-95.519160806768
21
-13.026661712195
0
LINE
8
Slot Profile
10
-27.332138939863
20
-47.727918255168
11
-49.370568407069
21
-82.801877827475
0
LINE
8
Slot Profile
10
20.273879192561
20
-51.12699700242
11
33.955068979215
21
-90.225591088172
0
LINE
8
Slot Profile
10
52.613252781218
20
-16.026404206173
11
91.71184686697
21
-29.707593992827
0
LINE
8
Slot Profile
10
45.333773910849
20
31.14239783639
11
80.407733483156
21
53.180827303596
0
LINE
8
Slot Profile
10
3.9170386451501
20
54.860339119007
11
8.554956767676
21
96.023000949233
0
LINE
8
Slot Profile
10
-40.449306613374
20
37.267326098035
11
-69.73987688318
21
66.55789636784
0
LINE
8
Slot Profile
10
-54.356498976542
20
-8.3887435896697
11
-95.519160806768
21
-13.026661712195
0
LINE
8
Slot Profile
10
-54.860339119007
20
-3.9170386451501
11
-96.023000949233
21
-8.5549567676759
0
LINE
8
Slot Profile
10
-31.14239783639
20
-45.333773910849
11
-53.180827303596
21
-80.407733483156
0
LINE
8
Slot Profile
10
16.026404206173
20
-52.613252781218
11
29.707593992827
21
-91.71184686697
0
LINE
8
Slot Profile
10
51.12699700242
20
-20.273879192561
11
90.225591088172
21
-33.955068979215
0
LINE
8
Slot Profile
10
47.727918255168
20
27.332138939863
11
82.801877827475
21
49.370568407069
0
LINE
8
Slot Profile
10
8.3887435896698
20
54.356498976542
11
13.026661712195
21
95.519160806768
0
LINE
8
Slot Profile
10
-37.267326098035
20
40.449306613374
11
-66.55789636784
21
69.73987688318
0
LINE
8
Slot Profile
10
-54.860339119007
20
-3.9170386451501
11
-96.023000949233
21
-8.5549567676761
0
ARC
8
Slot Profile
10
-95.797176204825
20
-10.793749477127
40
2.25
50
96.428571428571
51
276.42857142857
0
ARC
8
Slot Profile
10
-51.289669255482
20
-81.627041011276
40
2.25
50
147.85714285714
51
327.85714285714
0
ARC
8
Slot Profile
10
31.840004761824
20
-90.993505775743
40
2.25
50
199.28571428571
51
379.28571428571
0
ARC
8
Slot Profile
10
90.993505775743
20
-31.840004761824
40
2.25
50
250.71428571429
51
430.71428571429
0
ARC
8
Slot Profile
10
81.627041011276
20
51.289669255482
40
2.25
50
302.14285714286
51
482.14285714286
0
ARC
8
Slot Profile
10
10.793749477127
20
95.797176204825
40
2.25
50
353.57142857143
51
533.57142857143
0
ARC
8
Slot Profile
10
-68.167455565663
20
68.167455565663
40
2.25
50
405
51
585
0
ARC
8
Slot Profile
10
-95.797176204825
20
-10.793749477126
40
2.25
50
456.42857142857
51
636.42857142857
0
ENDSEC
0
EOF
