999
DXF generated by the Iris Calculator.
0
SECTION
2
ENTITIES
0
CIRCLE
8
Pivot-point PCD
10
0
20
0
40
70.700320554645
0
CIRCLE
8
Actuator Ring
6
40
10
0
20
0
40
91.40064110929
0
CIRCLE
8
Actuator Ring
6
40
10
0
20
0
40
50
0
CIRCLE
8
Actuator Ring
6
40
10
70.700320554645
20
0
40
2.125
0
CIRCLE
8
Actuator Ring
6
40
10
44.080928853964
20
55.275736430203
40
2.125
0
CIRCLE
8
Actuator Ring
6
40
10
-15.73230136083
20
68.927715908926
40
2.125
0
CIRCLE
8
Actuator Ring
6
40
10
-63.698787770456
20
30.675719439059
40
2.125
0
CIRCLE
8
Actuator Ring
6
40
10
-63.698787770457
20
-30.675719439059
40
2.125
0
CIRCLE
8
Actuator Ring
6
40
10
-15.73230136083
20
-68.927715908926
40
2.125
0
CIRCLE
8
Actuator Ring
6
40
10
44.080928853964
20
-55.275736430203
40
2.125
0
CIRCLE
8
Actuator Ring
6
40
10
70.700320554645
20
-1.7316584253188E-14
40
2.125
0
ENDSEC
0
EOF
