999
DXF generated by the Iris Calculator.
0
SECTION
2
ENTITIES
0
CIRCLE
8
Housing
6
40
10
0
20
0
40
96.52864110929
0
CIRCLE
8
Housing
6
40
10
0
20
0
40
92.40064110929
0
CIRCLE
8
Housing
6
40
10
0
20
0
40
50
0
LINE
8
Slot Center Line
10
-49.685610494662
20
-5.5982238051654
11
-86.602656170325
21
-9.7577758738691
0
LINE
8
Slot Center Line
10
-26.601603825767
20
-42.336209961414
11
-46.366936559018
21
-73.792556805495
0
LINE
8
Slot Center Line
10
16.513953097758
20
-47.194166515418
11
28.784031994368
21
-82.260037368746
0
LINE
8
Slot Center Line
10
47.194166515418
20
-16.513953097758
11
82.260037368746
21
-28.784031994368
0
LINE
8
Slot Center Line
10
42.336209961414
20
26.601603825767
11
73.792556805495
21
46.366936559018
0
LINE
8
Slot Center Line
10
5.5982238051654
20
49.685610494662
11
9.7577758738691
21
86.602656170325
0
LINE
8
Slot Center Line
10
-35.355339059327
20
35.355339059327
11
-61.624809313134
21
61.624809313134
0
LINE
8
Slot Center Line
10
-49.685610494662
20
-5.5982238051653
11
-86.602656170325
21
-9.7577758738689
0
LINE
8
Slot Profile
10
-49.383358249228
20
-7.8284052033863
11
-86.321869377294
21
-11.990375847718
0
LINE
8
Slot Profile
10
-24.669526604406
20
-43.490394998373
11
-44.446351909754
21
-74.965032166167
0
LINE
8
Slot Profile
10
18.620961740168
20
-46.403230317201
11
30.898175086182
21
-81.489490255516
0
LINE
8
Slot Profile
10
47.889486095999
20
-14.373486753781
11
82.975746034314
21
-26.650700099794
0
LINE
8
Slot Profile
10
41.096250654054
20
28.479785500933
11
72.570887821848
21
48.256610806281
0
LINE
8
Slot Profile
10
3.3567002588668
20
49.887198391693
11
7.5186709031991
21
86.825709519759
0
LINE
8
Slot Profile
10
-36.910513895454
20
33.728533380115
11
-63.195258558495
21
60.013278043156
0
LINE
8
Slot Profile
10
-49.383358249228
20
-7.8284052033863
11
-86.321869377294
21
-11.990375847718
0
LINE
8
Slot Profile
10
-49.887198391693
20
-3.3567002588667
11
-86.825709519759
21
-7.5186709031989
0
LINE
8
Slot Profile
10
-28.479785500933
20
-41.096250654054
11
-48.256610806281
21
-72.570887821848
0
LINE
8
Slot Profile
10
14.373486753781
20
-47.889486095999
11
26.650700099794
21
-82.975746034314
0
LINE
8
Slot Profile
10
46.403230317201
20
-18.620961740168
11
81.489490255516
21
-30.898175086182
0
LINE
8
Slot Profile
10
43.490394998373
20
24.669526604406
11
74.965032166167
21
44.446351909754
0
LINE
8
Slot Profile
10
7.8284052033863
20
49.383358249228
11
11.990375847719
21
86.321869377294
0
LINE
8
Slot Profile
10
-33.728533380115
20
36.910513895454
11
-60.013278043156
21
63.195258558495
0
LINE
8
Slot Profile
10
-49.887198391693
20
-3.3567002588668
11
-86.825709519759
21
-7.518670903199
0
ARC
8
Slot Profile
10
-86.602656170325
20
-9.7577758738691
40
2.25
50
96.428571428571
51
276.42857142857
0
ARC
8
Slot Profile
10
-46.366936559018
20
-73.792556805495
40
2.25
50
147.85714285714
51
327.85714285714
0
ARC
8
Slot Profile
10
28.784031994368
20
-82.260037368746
40
2.25
50
199.28571428571
51
379.28571428571
0
ARC
8
Slot Profile
10
82.260037368746
20
-28.784031994368
40
2.25
50
250.71428571429
51
430.71428571429
0
ARC
8
Slot Profile
10
73.792556805495
20
46.366936559018
40
2.25
50
302.14285714286
51
482.14285714286
0
ARC
8
Slot Profile
10
9.7577758738691
20
86.602656170325
40
2.25
50
353.57142857143
51
533.57142857143
0
ARC
8
Slot Profile
10
-61.624809313134
20
61.624809313134
40
2.25
50
405
51
585
0
ARC
8
Slot Profile
10
-86.602656170325
20
-9.7577758738689
40
2.25
50
456.42857142857
51
636.42857142857
0
ENDSEC
0
EOF
