999
DXF generated by the Iris Calculator.
0
SECTION
2
ENTITIES
0
CIRCLE
8
Housing
6
40
10
0
20
0
40
93.274291577222
0
CIRCLE
8
Housing
6
40
10
0
20
0
40
92.274291577222
0
CIRCLE
8
Housing
6
40
10
0
20
0
40
50
0
LINE
8
Slot Center Line
10
-49.685610494662
20
-5.5982238051654
11
-87.470813307488
21
-9.8555936908085
0
LINE
8
Slot Center Line
10
-26.601603825767
20
-42.336209961414
11
-46.831746631621
21
-74.53229779836
0
LINE
8
Slot Center Line
10
16.513953097758
20
-47.194166515418
11
29.072580451393
21
-83.084661481943
0
LINE
8
Slot Center Line
10
47.194166515418
20
-16.513953097758
11
83.084661481943
21
-29.072580451393
0
LINE
8
Slot Center Line
10
42.336209961414
20
26.601603825767
11
74.53229779836
21
46.831746631621
0
LINE
8
Slot Center Line
10
5.5982238051654
20
49.685610494662
11
9.8555936908085
21
87.470813307488
0
LINE
8
Slot Center Line
10
-35.355339059327
20
35.355339059327
11
-62.242573483395
21
62.242573483396
0
LINE
8
Slot Center Line
10
-49.685610494662
20
-5.5982238051653
11
-87.470813307488
21
-9.8555936908083
0
LINE
8
Slot Profile
10
-49.459230899407
20
-7.3337902096499
11
-87.257587380546
21
-11.592642157772
0
LINE
8
Slot Profile
10
-25.103538001836
20
-43.2413272205
11
-45.340723262635
21
-75.448623060284
0
LINE
8
Slot Profile
10
18.15563102997
20
-46.587262871987
11
30.718630254242
21
-82.49025192697
0
LINE
8
Slot Profile
10
47.74323958883
20
-14.852039373891
11
83.646228643813
21
-27.415038598162
0
LINE
8
Slot Profile
10
41.379214952696
20
28.067072699135
11
73.586510792481
21
48.304257959934
0
LINE
8
Slot Profile
10
3.8557974750236
20
49.851106565768
11
8.114649423146
21
87.649463046907
0
LINE
8
Slot Profile
10
-36.571114145277
20
34.096240411124
11
-63.4677084705
21
60.992834736347
0
LINE
8
Slot Profile
10
-49.459230899407
20
-7.33379020965
11
-87.257587380546
21
-11.592642157772
0
LINE
8
Slot Profile
10
-49.851106565768
20
-3.8557974750236
11
-87.649463046907
21
-8.1146494231459
0
LINE
8
Slot Profile
10
-28.067072699135
20
-41.379214952696
11
-48.304257959934
21
-73.586510792481
0
LINE
8
Slot Profile
10
14.852039373891
20
-47.74323958883
11
27.415038598162
21
-83.646228643813
0
LINE
8
Slot Profile
10
46.587262871987
20
-18.15563102997
11
82.49025192697
21
-30.718630254242
0
LINE
8
Slot Profile
10
43.2413272205
20
25.103538001836
11
75.448623060284
21
45.340723262635
0
LINE
8
Slot Profile
10
7.3337902096499
20
49.459230899407
11
11.592642157772
21
87.257587380546
0
LINE
8
Slot Profile
10
-34.096240411124
20
36.571114145277
11
-60.992834736347
21
63.4677084705
0
LINE
8
Slot Profile
10
-49.851106565768
20
-3.8557974750235
11
-87.649463046907
21
-8.114649423146
0
ARC
8
Slot Profile
10
-87.470813307488
20
-9.8555936908085
40
1.75
50
96.428571428571
51
276.42857142857
0
ARC
8
Slot Profile
10
-46.831746631621
20
-74.53229779836
40
1.75
50
147.85714285714
51
327.85714285714
0
ARC
8
Slot Profile
10
29.072580451393
20
-83.084661481943
40
1.75
50
199.28571428571
51
379.28571428571
0
ARC
8
Slot Profile
10
83.084661481943
20
-29.072580451393
40
1.75
50
250.71428571429
51
430.71428571429
0
ARC
8
Slot Profile
10
74.53229779836
20
46.831746631621
40
1.75
50
302.14285714286
51
482.14285714286
0
ARC
8
Slot Profile
10
9.8555936908085
20
87.470813307488
40
1.75
50
353.57142857143
51
533.57142857143
0
ARC
8
Slot Profile
10
-62.242573483395
20
62.242573483396
40
1.75
50
405
51
585
0
ARC
8
Slot Profile
10
-87.470813307488
20
-9.8555936908083
40
1.75
50
456.42857142857
51
636.42857142857
0
ENDSEC
0
EOF
