999
DXF generated by the Iris Calculator.
0
SECTION
2
ENTITIES
0
CIRCLE
8
Housing
6
40
10
0
20
0
40
93.274291577222
0
CIRCLE
8
Housing
6
40
10
0
20
0
40
92.274291577222
0
CIRCLE
8
Housing
6
40
10
0
20
0
40
50
0
CIRCLE
8
Dimensions
10
0
20
0
40
70.637145788611
0
CIRCLE
8
Minimum Aperture
10
0
20
0
40
5
0
CIRCLE
8
Actuator Ring
6
40
10
0
20
0
40
91.274291577222
0
CIRCLE
8
Actuator Ring
6
40
10
0
20
0
40
50
0
CIRCLE
8
Actuator Ring
6
40
10
70.637145788611
20
0
40
1.625
0
CIRCLE
8
Actuator Ring
6
40
10
44.041540031607
20
55.22634440922
40
1.625
0
CIRCLE
8
Actuator Ring
6
40
10
-15.71824365289
20
68.866125066174
40
1.625
0
CIRCLE
8
Actuator Ring
6
40
10
-63.641869273023
20
30.648308935355
40
1.625
0
CIRCLE
8
Actuator Ring
6
40
10
-63.641869273023
20
-30.648308935355
40
1.625
0
CIRCLE
8
Actuator Ring
6
40
10
-15.71824365289
20
-68.866125066174
40
1.625
0
CIRCLE
8
Actuator Ring
6
40
10
44.041540031607
20
-55.22634440922
40
1.625
0
CIRCLE
8
Actuator Ring
6
40
10
70.637145788611
20
-1.7301110898185E-14
40
1.625
0
ARC
8
Blades
6
40
10
0
20
0
40
91.274291577222
50
0
51
135
0
ARC
8
Blades
10
0
20
0
40
50
50
0
51
135
0
ARC
8
Blades
10
70.637145788611
20
0
40
20.637145788611
50
180
51
0
0
ARC
8
Blades
6
40
10
0
20
0
40
91.274291577222
50
51.428571428571
51
186.42857142857
0
ARC
8
Blades
10
0
20
0
40
50
50
51.428571428571
51
186.42857142857
0
ARC
8
Blades
10
44.041540031607
20
55.22634440922
40
20.637145788611
50
231.42857142857
51
51.428571428571
0
ARC
8
Blades
6
40
10
0
20
0
40
91.274291577222
50
102.85714285714
51
237.85714285714
0
ARC
8
Blades
10
0
20
0
40
50
50
102.85714285714
51
237.85714285714
0
ARC
8
Blades
10
-15.71824365289
20
68.866125066174
40
20.637145788611
50
282.85714285714
51
102.85714285714
0
ARC
8
Blades
6
40
10
0
20
0
40
91.274291577222
50
154.28571428571
51
289.28571428571
0
ARC
8
Blades
10
0
20
0
40
50
50
154.28571428571
51
289.28571428571
0
ARC
8
Blades
10
-63.641869273023
20
30.648308935355
40
20.637145788611
50
334.28571428571
51
154.28571428571
0
ARC
8
Blades
6
40
10
0
20
0
40
91.274291577222
50
205.71428571429
51
340.71428571429
0
ARC
8
Blades
10
0
20
0
40
50
50
205.71428571429
51
340.71428571429
0
ARC
8
Blades
10
-63.641869273023
20
-30.648308935355
40
20.637145788611
50
385.71428571429
51
205.71428571429
0
ARC
8
Blades
6
40
10
0
20
0
40
91.274291577222
50
257.14285714286
51
392.14285714286
0
ARC
8
Blades
10
0
20
0
40
50
50
257.14285714286
51
392.14285714286
0
ARC
8
Blades
10
-15.71824365289
20
-68.866125066174
40
20.637145788611
50
437.14285714286
51
257.14285714286
0
ARC
8
Blades
6
40
10
0
20
0
40
91.274291577222
50
308.57142857143
51
443.57142857143
0
ARC
8
Blades
10
0
20
0
40
50
50
308.57142857143
51
443.57142857143
0
ARC
8
Blades
10
44.041540031607
20
-55.22634440922
40
20.637145788611
50
488.57142857143
51
308.57142857143
0
ARC
8
Blades
6
40
10
0
20
0
40
91.274291577222
50
360
51
495
0
ARC
8
Blades
10
0
20
0
40
50
50
360
51
495
0
ARC
8
Blades
10
70.637145788611
20
-1.7301110898185E-14
40
20.637145788611
50
540
51
360
0
ARC
8
Blades
10
-49.94800479079
20
49.94800479079
40
20.637145788611
50
135
51
315
0
ARC
8
Blades
10
7.9088510216548
20
70.192994242152
40
20.637145788611
50
83.571428571429
51
263.57142857143
0
ARC
8
Blades
10
59.810180703633
20
37.581227353031
40
20.637145788611
50
32.142857142857
51
212.14285714286
0
ARC
8
Blades
10
66.673224410432
20
-23.329970250253
40
20.637145788611
50
-19.285714285714
51
160.71428571429
0
ARC
8
Blades
10
23.329970250253
20
-66.673224410432
40
20.637145788611
50
-70.714285714286
51
109.28571428571
0
ARC
8
Blades
10
-37.581227353031
20
-59.810180703633
40
20.637145788611
50
-122.14285714286
51
57.857142857143
0
ARC
8
Blades
10
-70.192994242152
20
-7.9088510216548
40
20.637145788611
50
-173.57142857143
51
6.4285714285714
0
ARC
8
Blades
10
-49.94800479079
20
49.94800479079
40
20.637145788611
50
-225
51
-45
0
CIRCLE
8
Blades
6
40
10
70.637145788611
20
0
40
1.5
0
CIRCLE
8
Blades
6
40
10
44.041540031607
20
55.22634440922
40
1.5
0
CIRCLE
8
Blades
6
40
10
-15.71824365289
20
68.866125066174
40
1.5
0
CIRCLE
8
Blades
6
40
10
-63.641869273023
20
30.648308935355
40
1.5
0
CIRCLE
8
Blades
6
40
10
-63.641869273023
20
-30.648308935355
40
1.5
0
CIRCLE
8
Blades
6
40
10
-15.71824365289
20
-68.866125066174
40
1.5
0
CIRCLE
8
Blades
6
40
10
44.041540031607
20
-55.22634440922
40
1.5
0
CIRCLE
8
Blades
6
40
10
70.637145788611
20
-1.7301110898185E-14
40
1.5
0
CIRCLE
8
Blades
6
40
10
-49.94800479079
20
49.94800479079
40
1.5
0
CIRCLE
8
Blades
6
40
10
-70.192994242152
20
-7.9088510216548
40
1.5
0
CIRCLE
8
Blades
6
40
10
-37.581227353031
20
-59.810180703633
40
1.5
0
CIRCLE
8
Blades
6
40
10
23.329970250253
20
-66.673224410432
40
1.5
0
CIRCLE
8
Blades
6
40
10
66.673224410432
20
-23.329970250253
40
1.5
0
CIRCLE
8
Blades
6
40
10
59.810180703633
20
37.581227353031
40
1.5
0
CIRCLE
8
Blades
6
40
10
7.9088510216548
20
70.192994242152
40
1.5
0
CIRCLE
8
Blades
6
40
10
-49.948004790789
20
49.94800479079
40
1.5
0
LINE
8
Dimensions
10
-49.685610494662
20
-5.5982238051654
11
-87.470813307488
21
-9.8555936908085
0
LINE
8
Dimensions
10
-26.601603825767
20
-42.336209961414
11
-46.831746631621
21
-74.53229779836
0
LINE
8
Dimensions
10
16.513953097758
20
-47.194166515418
11
29.072580451393
21
-83.084661481943
0
LINE
8
Dimensions
10
47.194166515418
20
-16.513953097758
11
83.084661481943
21
-29.072580451393
0
LINE
8
Dimensions
10
42.336209961414
20
26.601603825767
11
74.53229779836
21
46.831746631621
0
LINE
8
Dimensions
10
5.5982238051654
20
49.685610494662
11
9.8555936908085
21
87.470813307488
0
LINE
8
Dimensions
10
-35.355339059327
20
35.355339059327
11
-62.242573483395
21
62.242573483396
0
LINE
8
Dimensions
10
-49.685610494662
20
-5.5982238051653
11
-87.470813307488
21
-9.8555936908083
0
LINE
8
Housing
10
-49.459230899407
20
-7.3337902096499
11
-87.257587380546
21
-11.592642157772
0
LINE
8
Housing
10
-25.103538001836
20
-43.2413272205
11
-45.340723262635
21
-75.448623060284
0
LINE
8
Housing
10
18.15563102997
20
-46.587262871987
11
30.718630254242
21
-82.49025192697
0
LINE
8
Housing
10
47.74323958883
20
-14.852039373891
11
83.646228643813
21
-27.415038598162
0
LINE
8
Housing
10
41.379214952696
20
28.067072699135
11
73.586510792481
21
48.304257959934
0
LINE
8
Housing
10
3.8557974750236
20
49.851106565768
11
8.114649423146
21
87.649463046907
0
LINE
8
Housing
10
-36.571114145277
20
34.096240411124
11
-63.4677084705
21
60.992834736347
0
LINE
8
Housing
10
-49.459230899407
20
-7.33379020965
11
-87.257587380546
21
-11.592642157772
0
LINE
8
Housing
10
-49.851106565768
20
-3.8557974750236
11
-87.649463046907
21
-8.1146494231459
0
LINE
8
Housing
10
-28.067072699135
20
-41.379214952696
11
-48.304257959934
21
-73.586510792481
0
LINE
8
Housing
10
14.852039373891
20
-47.74323958883
11
27.415038598162
21
-83.646228643813
0
LINE
8
Housing
10
46.587262871987
20
-18.15563102997
11
82.49025192697
21
-30.718630254242
0
LINE
8
Housing
10
43.2413272205
20
25.103538001836
11
75.448623060284
21
45.340723262635
0
LINE
8
Housing
10
7.3337902096499
20
49.459230899407
11
11.592642157772
21
87.257587380546
0
LINE
8
Housing
10
-34.096240411124
20
36.571114145277
11
-60.992834736347
21
63.4677084705
0
LINE
8
Housing
10
-49.851106565768
20
-3.8557974750235
11
-87.649463046907
21
-8.114649423146
0
ARC
8
Housing
10
-87.470813307488
20
-9.8555936908085
40
1.75
50
96.428571428571
51
276.42857142857
0
ARC
8
Housing
10
-46.831746631621
20
-74.53229779836
40
1.75
50
147.85714285714
51
327.85714285714
0
ARC
8
Housing
10
29.072580451393
20
-83.084661481943
40
1.75
50
199.28571428571
51
379.28571428571
0
ARC
8
Housing
10
83.084661481943
20
-29.072580451393
40
1.75
50
250.71428571429
51
430.71428571429
0
ARC
8
Housing
10
74.53229779836
20
46.831746631621
40
1.75
50
302.14285714286
51
482.14285714286
0
ARC
8
Housing
10
9.8555936908085
20
87.470813307488
40
1.75
50
353.57142857143
51
533.57142857143
0
ARC
8
Housing
10
-62.242573483395
20
62.242573483396
40
1.75
50
405
51
585
0
ARC
8
Housing
10
-87.470813307488
20
-9.8555936908083
40
1.75
50
456.42857142857
51
636.42857142857
0
ENDSEC
0
EOF
